# xmcd
# Track frame offsets:
# 225
# 16957
# 36133
# 52288
# 65506
# 83593
# 100825
# 113183
# 135546
# 150337
# 168971
# 184987
# 199613
# 211290
#
# Disc length: 2993 seconds
# Revision: 0
# Processed by: cddbd v1.4PL0 Copyright (c) Steve Scherf et al.
# Submitted via: VisiTrax 2.9.5.180 - For more info visit www.synapsa.com
#
DISCID=b80bae0e
DTITLE=Alf Robertson - I Full Frihet
DYEAR=1900
DGENRE=
TTITLE0=På en liten mysig krog i Karlstad
TTITLE1=Det är mig du tar i båten
TTITLE2=För alltid - Amen
TTITLE3=Balladen om en stad
TTITLE4=Bara tre från Örebro
TTITLE5=Jag är inte den jag var förut
TTITLE6=Ensam liten man
TTITLE7=Vem ska ta över
TTITLE8=Sådan kärlek kan ej dö
TTITLE9=Har vi gjort allt vi kan
TTITLE10=Mitt hjärta
TTITLE11=Som om du var här
TTITLE12=Emmeline
TTITLE13=Min värld e' bra ändå
EXTD=
EXTT0=
EXTT1=
EXTT2=
EXTT3=
EXTT4=
EXTT5=
EXTT6=
EXTT7=
EXTT8=
EXTT9=
EXTT10=
EXTT11=
EXTT12=
EXTT13=
PLAYORDER=
